<svg width="257" height="251" viewBox="0 0 257 251" fill="none" xmlns="http://www.w3.org/2000/svg">
<g clip-path="url(#clip0_234_119)">
<path d="M213.845 0.80365H42.8447C19.3726 0.80365 0.344727 19.8315 0.344727 43.3036V207.904C0.344727 231.376 19.3726 250.404 42.8447 250.404H213.845C237.317 250.404 256.345 231.376 256.345 207.904V43.3036C256.345 19.8315 237.317 0.80365 213.845 0.80365Z" fill="#470137"/>
<path d="M134.923 66.4445L102.98 119.167L137.155 175.152C137.374 175.544 137.436 176.004 137.327 176.44C137.274 176.625 137.16 176.671 136.985 176.678L136.79 176.676L136.555 176.669C136.427 176.669 136.284 176.675 136.125 176.701L111.485 176.701L111.001 176.694C109.672 176.659 108.716 176.469 108.132 175.495C105.841 171.03 103.551 166.594 101.263 162.186C99.2578 158.33 97.1445 154.408 94.9232 150.419L93.9646 148.705C91.3885 144.127 88.8411 139.49 86.3223 134.794H86.1505C83.8588 139.375 81.4831 143.954 79.0234 148.533C76.5604 153.114 74.1276 157.665 71.725 162.186C69.3208 166.71 66.8593 171.204 64.3406 175.667C63.9357 176.576 63.2632 176.766 62.3253 176.798L61.9359 176.804H38.4088L38.3071 176.806L37.9705 176.837C37.7837 176.848 37.6721 176.808 37.6359 176.526C37.5713 176.107 37.6631 175.679 37.8937 175.323L71.038 120.884L38.7521 66.2727C38.4088 65.8167 38.3515 65.4446 38.5802 65.1565C38.8373 64.8595 39.219 64.7004 39.6109 64.7271H63.825C64.353 64.6983 64.8808 64.786 65.3708 64.9849C65.7814 65.2175 66.1337 65.5405 66.401 65.9294C68.4619 70.5096 70.7517 75.0892 73.2703 79.668C75.7875 84.2484 78.3349 88.7708 80.9125 93.2349C83.4885 97.7 85.8642 102.222 88.0396 106.802H88.2114C90.5 102.109 92.8184 97.5291 95.1666 93.0633C97.5119 88.5982 99.9161 84.1044 102.379 79.5821C104.84 75.0607 107.216 70.567 109.506 66.1011C109.638 65.6772 109.874 65.2934 110.193 64.9849C110.617 64.7696 111.094 64.6802 111.567 64.7271H134.064C134.511 64.6168 134.974 64.8308 135.18 65.2424C135.367 65.6166 135.296 66.0632 135.014 66.3602L134.923 66.4445ZM185.393 178.917L184.208 178.93C176.304 179.05 168.472 177.408 161.282 174.121C154.584 171.021 148.985 165.961 145.225 159.61C141.434 153.313 139.488 145.468 139.39 136.075L139.386 135.31C139.321 127.428 141.335 119.668 145.225 112.813C149.12 106.023 154.798 100.434 161.637 96.6463L162.227 96.3261C169.667 92.2045 178.655 90.1437 189.189 90.1438L189.649 90.1491L190.175 90.1652L190.766 90.1921L191.421 90.2297L192.523 90.3073L193.771 90.4077L194.684 90.4872V56.6558C194.684 55.856 195.028 55.4536 195.715 55.4536H217.353C217.636 55.4131 217.923 55.5085 218.125 55.7111C218.328 55.9138 218.424 56.2001 218.383 56.4839V157.978C218.383 159.683 218.449 161.518 218.58 163.483L218.901 167.938L219.07 170.515C219.113 171.245 218.704 171.927 218.04 172.232C212.457 174.56 206.643 176.287 200.695 177.384C195.645 178.316 190.527 178.829 185.393 178.917ZM194.684 157.635V110.752C193.756 110.5 192.808 110.328 191.85 110.236C190.681 110.119 189.505 110.062 188.33 110.065C184.162 110.023 180.044 110.965 176.308 112.813C172.67 114.621 169.564 117.343 167.293 120.712C165.026 124.028 163.854 128.359 163.776 133.703L163.772 134.279C163.688 138.023 164.3 141.749 165.575 145.27C166.613 148.107 168.254 150.685 170.384 152.826C172.423 154.797 174.892 156.266 177.596 157.12C180.453 158.045 183.438 158.508 186.441 158.494C188.043 158.494 189.531 158.436 190.906 158.322C192.003 158.239 193.09 158.058 194.154 157.781L194.684 157.635Z" fill="#FF61F6"/>
</g>
<defs>
<clipPath id="clip0_234_119">
<rect width="256" height="250" fill="white" transform="translate(0.344727 0.80365)"/>
</clipPath>
</defs>
</svg>
