<svg width="176" height="176" viewBox="0 0 176 176" fill="none" xmlns="http://www.w3.org/2000/svg">
<g clip-path="url(#clip0_248_148)">
<path d="M149.6 0H26.4C11.8197 0 0 11.8197 0 26.4V149.6C0 164.18 11.8197 176 26.4 176H149.6C164.18 176 176 164.18 176 149.6V26.4C176 11.8197 164.18 0 149.6 0Z" fill="#171515"/>
<path d="M40.9063 87.6563C46.75 97.9688 57.75 104.156 75.9688 105.875C73.2188 107.938 70.125 111.719 69.7813 116.188C66.3438 118.25 59.8125 118.938 54.6563 117.219C47.4375 114.813 44.6875 100.719 33.6875 102.781C31.2813 103.125 31.625 104.844 33.6875 106.219C37.125 108.281 40.9063 111.719 42.625 116.531C46.75 127.188 55.3438 129.938 69.0938 127.875V143.344C69.0938 148.156 62.2188 149.531 62.2188 151.938C62.2188 152.969 64.625 152.969 66.3438 152.969C69.7813 152.969 77.3438 149.875 77.3438 145.063C77.3438 140.938 77.3438 127.188 77.6875 124.781C77.6875 119.625 80.4375 117.906 80.4375 117.906C80.4375 117.906 80.7813 146.094 79.75 149.531C78.375 154 76.3125 153.313 76.3125 155.375C76.3125 158.469 85.25 156.063 88.3438 149.531C90.75 144.375 89.7188 116.875 89.375 117.219H91.7813C91.7813 117.219 91.7813 129.938 92.125 135.438C92.125 141.281 91.7813 148.844 95.2188 152.625C97.625 155.031 105.188 159.156 105.188 155.375C105.188 153.313 101.063 151.25 101.063 145.406V118.25C104.5 118.25 103.813 127.188 103.813 127.188L104.156 143.688C104.156 143.688 103.469 149.875 110.688 152.281C113.438 153.313 118.938 153.313 119.281 151.938C119.625 150.563 112.406 148.156 112.406 143.344V126.5C112.406 114.125 110.688 109.656 104.844 105.875C123.063 104.156 134.406 99.6875 139.906 87.6563C143.344 80.7813 144.031 72.5313 144.031 66.3438C144.031 49.1563 135.781 43.3125 134.063 40.2188C136.469 27.1563 133.719 21.3125 132.344 19.5938C127.531 17.875 115.844 23.7188 109.656 27.8438C99.3438 24.75 77.3438 25.0938 69.0938 28.5313C53.9688 17.875 46.0625 19.5938 46.0625 19.5938C46.0625 19.5938 40.9063 28.875 44.6875 42.2813C39.5313 48.4688 36.0938 52.9375 35.75 64.625C35.75 73.9063 36.7813 79.75 40.9063 87.6563Z" fill="white"/>
</g>
<defs>
<clipPath id="clip0_248_148">
<rect width="176" height="176" fill="white"/>
</clipPath>
</defs>
</svg>
