<svg width="552" height="552" viewBox="0 0 552 552" fill="none" xmlns="http://www.w3.org/2000/svg">
<g clip-path="url(#clip0_248_151)">
<path d="M386.878 0.5H164.156C73.64 0.5 0 74.14 0 164.656V387.378C0 477.894 73.64 551.534 164.156 551.534H386.878C477.394 551.534 551.034 477.894 551.034 387.378V164.656C551.033 74.14 477.393 0.5 386.878 0.5ZM495.6 387.378C495.6 447.423 446.923 496.1 386.878 496.1H164.156C104.111 496.1 55.434 447.423 55.434 387.378V164.656C55.434 104.61 104.111 55.934 164.156 55.934H386.878C446.923 55.934 495.6 104.61 495.6 164.656V387.378Z" fill="url(#paint0_linear_248_151)"/>
<path d="M275.517 133.5C196.933 133.5 133 197.433 133 276.016C133 354.599 196.933 418.533 275.517 418.533C354.101 418.533 418.034 354.6 418.034 276.016C418.034 197.432 354.101 133.5 275.517 133.5ZM275.517 363.1C227.422 363.1 188.434 324.112 188.434 276.017C188.434 227.922 227.423 188.934 275.517 188.934C323.612 188.934 362.6 227.922 362.6 276.017C362.6 324.111 323.611 363.1 275.517 363.1Z" fill="url(#paint1_linear_248_151)"/>
<path d="M418.31 168.72C437.17 168.72 452.46 153.431 452.46 134.57C452.46 115.71 437.17 100.42 418.31 100.42C399.449 100.42 384.16 115.71 384.16 134.57C384.16 153.431 399.449 168.72 418.31 168.72Z" fill="url(#paint2_linear_248_151)"/>
</g>
<defs>
<linearGradient id="paint0_linear_248_151" x1="275.517" y1="549.93" x2="275.517" y2="4.77998" gradientUnits="userSpaceOnUse">
<stop stop-color="#E09B3D"/>
<stop offset="0.3" stop-color="#C74C4D"/>
<stop offset="0.6" stop-color="#C21975"/>
<stop offset="1" stop-color="#7024C4"/>
</linearGradient>
<linearGradient id="paint1_linear_248_151" x1="275.517" y1="549.93" x2="275.517" y2="4.78001" gradientUnits="userSpaceOnUse">
<stop stop-color="#E09B3D"/>
<stop offset="0.3" stop-color="#C74C4D"/>
<stop offset="0.6" stop-color="#C21975"/>
<stop offset="1" stop-color="#7024C4"/>
</linearGradient>
<linearGradient id="paint2_linear_248_151" x1="418.31" y1="549.93" x2="418.31" y2="4.78006" gradientUnits="userSpaceOnUse">
<stop stop-color="#E09B3D"/>
<stop offset="0.3" stop-color="#C74C4D"/>
<stop offset="0.6" stop-color="#C21975"/>
<stop offset="1" stop-color="#7024C4"/>
</linearGradient>
<clipPath id="clip0_248_151">
<rect width="551.034" height="551.034" fill="white" transform="translate(0 0.5)"/>
</clipPath>
</defs>
</svg>
