<svg width="40" height="41" viewBox="0 0 40 41" fill="none" xmlns="http://www.w3.org/2000/svg">
<path d="M34 0.458618H6C2.68629 0.458618 0 3.14491 0 6.45862V34.4586C0 37.7723 2.68629 40.4586 6 40.4586H34C37.3137 40.4586 40 37.7723 40 34.4586V6.45862C40 3.14491 37.3137 0.458618 34 0.458618Z" fill="#F7DF1E"/>
<path d="M25.3125 29.3649C26.0938 30.693 27.1875 31.6305 28.9844 31.6305C30.5469 31.6305 31.5625 30.8492 31.5625 29.7555C31.5625 28.5055 30.5469 28.0367 28.8281 27.2555L27.8906 26.8649C25.1562 25.693 23.3594 24.2867 23.3594 21.2399C23.3594 18.4274 25.4688 16.2399 28.8281 16.2399C31.25 16.2399 32.9688 17.0992 34.1406 19.2867L31.25 21.1617C30.625 19.9899 29.9219 19.5211 28.8281 19.5211C27.7344 19.5211 27.0312 20.2242 27.0312 21.1617C27.0312 22.2555 27.7344 22.7242 29.375 23.4274L30.3125 23.818C33.5156 25.2242 35.3125 26.5524 35.3125 29.7555C35.3125 33.1149 32.6562 34.9899 29.0625 34.9899C25.5469 34.9899 23.2812 33.3492 22.1875 31.1617L25.3125 29.3649ZM12.0312 29.6774C12.6562 30.693 13.125 31.6305 14.4531 31.6305C15.7031 31.6305 16.4844 31.1617 16.4844 29.2867V16.318H20.2344V29.1305C20.2344 33.0367 17.9688 34.7555 14.6094 34.7555C11.5625 34.7555 9.84375 33.193 8.98438 31.318L12.0312 29.6774Z" fill="black"/>
</svg>
