<svg width="383" height="383" viewBox="0 0 383 383" fill="none" xmlns="http://www.w3.org/2000/svg">
<g clip-path="url(#clip0_248_131)">
<path d="M347.823 0.778442H34.9332C15.8492 0.778442 0.378174 16.2494 0.378174 35.3334V348.222C0.378174 367.307 15.8492 382.778 34.9332 382.778H347.822C366.907 382.778 382.378 367.307 382.378 348.222V35.3334C382.378 16.2494 366.907 0.778442 347.823 0.778442ZM118.585 330.622C118.585 336.176 114.083 340.678 108.529 340.678H65.7232C60.1692 340.678 55.6672 336.176 55.6672 330.622V151.181C55.6672 145.627 60.1692 141.125 65.7232 141.125H108.529C114.083 141.125 118.585 145.627 118.585 151.181V330.622ZM87.1262 124.21C64.6672 124.21 46.4602 106.003 46.4602 83.5444C46.4602 61.0854 64.6672 42.8784 87.1262 42.8784C109.585 42.8784 127.792 61.0854 127.792 83.5444C127.792 106.003 109.586 124.21 87.1262 124.21ZM342.288 331.432C342.288 336.538 338.148 340.678 333.042 340.678H287.108C282.002 340.678 277.862 336.538 277.862 331.432V247.264C277.862 234.708 281.545 192.243 245.049 192.243C216.74 192.243 210.998 221.309 209.845 234.353V331.432C209.845 336.538 205.706 340.678 200.599 340.678H156.173C151.067 340.678 146.927 336.538 146.927 331.432V150.371C146.927 145.265 151.067 141.125 156.173 141.125H200.599C205.705 141.125 209.845 145.265 209.845 150.371V166.026C220.342 150.273 235.942 138.114 269.157 138.114C342.709 138.114 342.288 206.83 342.288 244.586V331.432Z" fill="#0077B7"/>
</g>
<defs>
<clipPath id="clip0_248_131">
<rect width="382" height="382" fill="white" transform="translate(0.378174 0.778442)"/>
</clipPath>
</defs>
</svg>
