<svg width="40" height="41" viewBox="0 0 40 41" fill="none" xmlns="http://www.w3.org/2000/svg">
<path d="M29.6869 38.0438C29.5381 38.1226 29.5506 38.1476 29.6931 38.0751C29.7394 38.0563 29.7781 38.0301 29.8119 37.9988C29.8119 37.9726 29.8119 37.9726 29.6869 38.0438ZM29.9869 37.8813C29.9156 37.9401 29.9156 37.9401 30.0006 37.9013C30.0456 37.8751 30.0856 37.8501 30.0856 37.8426C30.0856 37.8088 30.0656 37.8163 29.9869 37.8813ZM30.1819 37.7638C30.1106 37.8226 30.1106 37.8226 30.1956 37.7838C30.2419 37.7576 30.2806 37.7301 30.2806 37.7238C30.2806 37.6926 30.2606 37.6988 30.1819 37.7638ZM30.3794 37.6476C30.3081 37.7063 30.3081 37.7063 30.3906 37.6663C30.4369 37.6413 30.4756 37.6151 30.4756 37.6076C30.4756 37.5763 30.4556 37.5826 30.3794 37.6476ZM30.6456 37.4713C30.5094 37.5626 30.4619 37.6213 30.5869 37.5563C30.6706 37.5051 30.8131 37.3926 30.7881 37.3926C30.7344 37.4126 30.6894 37.4463 30.6444 37.4713H30.6456ZM18.6916 0.55057C18.6004 0.55682 18.3266 0.58182 18.0866 0.601821C12.4015 1.11683 7.08264 4.17689 3.71133 8.89074C1.84754 11.4745 0.637513 14.4759 0.181254 17.6272C0.0200004 18.7272 0 19.0522 0 20.5435C0 22.0335 0.0200004 22.3535 0.181254 23.4535C1.27003 30.9674 6.61513 37.2751 13.8603 39.6126C15.1641 40.0289 16.5303 40.3164 18.0866 40.4926C18.6916 40.5576 21.3079 40.5576 21.9129 40.4926C24.603 40.1926 26.8743 39.5289 29.1218 38.3826C29.4668 38.2076 29.5318 38.1613 29.4856 38.1226C28.3856 36.6713 27.3056 35.2188 26.2243 33.7537L23.028 29.4374L19.0241 23.506C17.6891 21.521 16.3491 19.541 14.9878 17.5759C14.9741 17.5759 14.9566 20.2122 14.9491 23.4273C14.9353 29.0586 14.9353 29.2874 14.8641 29.4174C14.7928 29.5737 14.6753 29.7037 14.519 29.7762C14.3953 29.8349 14.284 29.8474 13.6928 29.8474H13.0165L12.8403 29.7374C12.7303 29.6662 12.639 29.5674 12.5803 29.4512L12.4953 29.2749L12.5015 21.436L12.5153 13.5971L12.639 13.4408C12.7178 13.3446 12.8153 13.2658 12.9253 13.2071C13.089 13.1283 13.154 13.1158 13.8303 13.1158C14.624 13.1158 14.7553 13.1471 14.9641 13.3758C16.5841 15.7909 18.1991 18.2122 19.7879 20.641C22.3867 24.5811 25.9343 29.9574 27.6781 32.595L30.8494 37.3938L31.0056 37.2901C32.5294 36.2738 33.9157 35.0638 35.112 33.6837C37.632 30.7987 39.267 27.2499 39.8208 23.4623C39.9821 22.3623 40.0021 22.036 40.0021 20.546C40.0021 19.0547 39.9821 18.7359 39.8208 17.6359C38.732 10.122 33.3869 3.81439 26.1418 1.47559C24.7868 1.04683 23.393 0.754324 21.9817 0.604321C21.6029 0.56557 19.0179 0.519319 18.6929 0.55307L18.6916 0.55057ZM26.8755 12.6471C27.0643 12.7371 27.2068 12.9071 27.2718 13.1021C27.3056 13.2071 27.3118 15.3809 27.3056 20.2772L27.2918 27.3074L26.0555 25.4073L24.8118 23.506V18.4022C24.8118 15.0934 24.8255 13.2383 24.843 13.1471C24.9018 12.9383 25.0443 12.7633 25.2343 12.6533C25.3893 12.5746 25.4493 12.5683 26.068 12.5683C26.6468 12.5683 26.7455 12.5746 26.8755 12.6471Z" fill="black"/>
</svg>
