<svg width="257" height="289" viewBox="0 0 257 289" fill="none" xmlns="http://www.w3.org/2000/svg">
<path d="M128.465 288.669C124.49 288.669 120.78 287.609 117.335 285.754L82.0883 264.818C76.7881 261.903 79.4382 260.843 81.0282 260.313C88.1835 257.927 89.5086 257.397 96.9289 253.157C97.7239 252.627 98.7839 252.892 99.579 253.422L126.61 269.588C127.67 270.118 128.995 270.118 129.79 269.588L235.529 208.371C236.589 207.84 237.119 206.78 237.119 205.455V83.2856C237.119 81.9606 236.589 80.9005 235.529 80.3705L129.79 19.4181C128.73 18.8881 127.405 18.8881 126.61 19.4181L20.8709 80.3705C19.8108 80.9005 19.2808 82.2256 19.2808 83.2856V205.455C19.2808 206.515 19.8108 207.84 20.8709 208.371L49.757 225.066C65.3926 233.016 75.198 223.741 75.198 214.466V93.886C75.198 92.296 76.5231 90.7059 78.3781 90.7059H91.8937C93.4837 90.7059 95.0738 92.031 95.0738 93.886V214.466C95.0738 235.402 83.6783 247.592 63.8026 247.592C57.7073 247.592 52.9371 247.592 39.4216 240.967L11.5955 225.066C4.70525 221.091 0.465088 213.671 0.465088 205.72V83.5506C0.465088 75.6003 4.70525 68.18 11.5955 64.2049L117.335 2.98749C123.96 -0.722656 132.97 -0.722656 139.596 2.98749L245.335 64.2049C252.225 68.18 256.465 75.6003 256.465 83.5506V205.72C256.465 213.671 252.225 221.091 245.335 225.066L139.596 286.284C136.15 287.874 132.175 288.669 128.465 288.669ZM161.061 204.66C114.685 204.66 105.144 183.46 105.144 165.439C105.144 163.849 106.469 162.259 108.324 162.259H122.105C123.695 162.259 125.02 163.319 125.02 164.909C127.14 178.954 133.235 185.845 161.326 185.845C183.587 185.845 193.128 180.809 193.128 168.884C193.128 161.994 190.478 156.959 155.761 153.513C126.875 150.598 108.854 144.238 108.854 121.182C108.854 99.7163 126.875 86.9958 157.086 86.9958C191.008 86.9958 207.703 98.6562 209.823 124.097C209.823 124.892 209.558 125.687 209.028 126.482C208.498 127.012 207.703 127.542 206.908 127.542H193.128C191.803 127.542 190.478 126.482 190.212 125.157C187.032 110.582 178.817 105.812 157.086 105.812C132.705 105.812 129.79 114.292 129.79 120.652C129.79 128.337 133.235 130.722 166.097 134.963C198.693 139.203 214.063 145.298 214.063 168.089C213.798 191.41 194.718 204.66 161.061 204.66Z" fill="#539E43"/>
</svg>
