<svg width="42" height="38" viewBox="0 0 42 38" fill="none" xmlns="http://www.w3.org/2000/svg">
<path d="M20.8976 22.5307C22.9586 22.5307 24.6293 20.86 24.6293 18.799C24.6293 16.738 22.9586 15.0673 20.8976 15.0673C18.8367 15.0673 17.1659 16.738 17.1659 18.799C17.1659 20.86 18.8367 22.5307 20.8976 22.5307Z" fill="#007ACC"/>
<path d="M20.8976 27.355C16.4123 27.4635 11.9382 26.8589 7.64256 25.5638C5.65822 24.9348 3.80745 23.9438 2.1838 22.6411C1.56423 22.1961 1.04827 21.6223 0.671325 20.9591C0.294377 20.2959 0.0653643 19.559 0 18.7989C0 16.3315 2.71072 13.9134 7.25148 12.3311C11.662 10.9291 16.2702 10.2496 20.8976 10.319C25.4633 10.2552 30.0098 10.9224 34.3647 12.2953C36.2757 12.9045 38.0637 13.8476 39.6458 15.0806C40.2548 15.5049 40.763 16.0579 41.1345 16.7005C41.5059 17.3431 41.7315 18.0595 41.7953 18.7989C41.7953 21.3634 38.7651 23.9621 33.884 25.5772C29.6715 26.8301 25.2919 27.4297 20.8976 27.355ZM20.8976 12.1042C16.4705 12.045 12.0622 12.691 7.83811 14.0178C3.65858 15.4762 1.78526 17.4704 1.78526 18.7945C1.78526 20.1797 3.79889 22.3575 8.22023 23.8696C12.3297 25.1023 16.6086 25.6762 20.8976 25.5698C25.1016 25.6449 29.2924 25.0761 33.3243 23.883C37.9143 22.362 40.004 20.1812 40.004 18.7989C39.9287 18.3246 39.7559 17.871 39.4964 17.4669C39.2369 17.0627 38.8964 16.7168 38.4964 16.4509C37.081 15.357 35.4837 14.5212 33.778 13.982C29.612 12.6741 25.2637 12.0401 20.8976 12.1042Z" fill="#007ACC"/>
<path d="M12.4193 37.4113C11.723 37.4273 11.0348 37.2583 10.4251 36.9217C8.28755 35.6887 7.54718 32.1331 8.44428 27.4088C9.43341 22.8876 11.1472 18.5561 13.5194 14.5821C15.7446 10.5953 18.5933 6.99016 21.9576 3.90341C23.4401 2.55209 25.1503 1.47413 27.0088 0.71951C27.6811 0.404462 28.4144 0.24115 29.1568 0.24115C29.8992 0.24115 30.6326 0.404462 31.3048 0.71951C33.5274 2.00024 34.2633 5.92302 33.2259 10.9579C32.2062 15.2338 30.5369 19.328 28.2761 23.0979C26.1293 27.0376 23.3702 30.6114 20.1022 33.6855C18.5659 35.0898 16.7829 36.1976 14.8434 36.953C14.067 37.2412 13.2474 37.3961 12.4193 37.4113ZM15.0658 15.4688C12.8031 19.2741 11.1605 23.4154 10.1997 27.7372C9.37423 32.0884 10.1668 34.705 11.3192 35.3708C12.5133 36.0619 15.4121 35.4066 18.9319 32.3317C22.0517 29.3865 24.6851 25.9657 26.7342 22.1963C28.9 18.5922 30.5013 14.6778 31.4824 10.5892C32.4586 5.84988 31.6153 2.94809 30.4181 2.25847C29.9695 2.08655 29.49 2.0096 29.01 2.03246C28.5301 2.05533 28.0601 2.17752 27.6298 2.39132C25.9754 3.074 24.4545 4.04317 23.1368 5.2543C19.9226 8.211 17.2014 11.6623 15.0763 15.4777L15.0658 15.4688Z" fill="#007ACC"/>
<path d="M29.3717 37.4306C27.3491 37.4306 24.7802 36.2066 22.1053 33.9064C18.6821 30.7916 15.7852 27.1436 13.5268 23.1038C11.1844 19.1846 9.48411 14.9157 8.49047 10.4593C8.05954 8.49859 7.97969 6.47705 8.25463 4.48851C8.31819 3.75083 8.54281 3.03608 8.91265 2.39466C9.2825 1.75323 9.78855 1.20076 10.3951 0.77619C12.6148 -0.509015 16.3808 0.812014 20.2245 4.2243C23.4197 7.24279 26.1331 10.7335 28.2701 14.5746C30.6111 18.4024 32.3292 22.5777 33.3601 26.9445C33.8096 28.9771 33.879 31.0754 33.5646 33.1332C33.4899 33.8921 33.2519 34.6258 32.8669 35.2841C32.482 35.9424 31.9593 36.5097 31.3346 36.947C30.7348 37.2795 30.0573 37.4464 29.3717 37.4306ZM15.0717 22.2052C17.2383 26.066 20.0055 29.5572 23.2696 32.5481C26.6266 35.4364 29.2896 36.0574 30.4345 35.3842C31.6286 34.6901 32.5093 31.8569 31.6018 27.2729C30.6074 23.1037 28.9595 19.1182 26.7192 15.4642C24.6799 11.7879 22.09 8.44541 19.0393 5.55279C15.421 2.34053 12.4864 1.62254 11.2908 2.31515C10.9181 2.61799 10.6123 2.99481 10.3926 3.42181C10.1729 3.84881 10.0442 4.31672 10.0145 4.796C9.77718 6.56944 9.85449 8.37084 10.2429 10.1174C11.1987 14.3793 12.8293 18.461 15.0732 22.2082L15.0717 22.2052Z" fill="#007ACC"/>
</svg>
