<svg width="208" height="208" viewBox="0 0 208 208" fill="none" xmlns="http://www.w3.org/2000/svg">
<path fill-rule="evenodd" clip-rule="evenodd" d="M35.529 181.955C37.3384 183.405 39.644 184.088 41.9515 183.859C44.259 183.629 46.3848 182.505 47.873 180.727C49.3613 178.948 50.0936 176.658 49.9129 174.346C49.7323 172.034 48.6531 169.885 46.9067 168.359C45.1604 166.834 42.8858 166.053 40.5706 166.185C38.2555 166.316 36.084 167.35 34.5218 169.063C32.9596 170.777 32.1309 173.035 32.2135 175.352C32.2961 177.67 33.2833 179.862 34.9635 181.461L33.2345 179.94C12.818 160.953 0 133.881 0 103.857C0 46.592 46.592 0 103.87 0C132.99 0 159.315 12.0705 178.198 31.434C182.641 25.3601 186.35 18.7819 189.247 11.8365C202.481 51.6035 210.262 85.0265 207.415 111.352C203.567 165.133 158.613 207.747 103.87 207.747C79.4178 207.763 55.7515 199.11 37.076 183.326L35.529 181.955ZM188.799 149.572C214.864 114.888 200.337 58.799 188.247 22.9515C177.476 45.396 150.949 62.5625 128.043 67.9965C106.574 73.1185 87.5745 68.9195 67.704 76.5635C22.399 93.9835 23.114 148.012 48.074 160.154C48.087 160.154 49.569 160.96 49.5495 160.934C49.5495 160.921 86.2355 153.641 106.515 146.153C136.155 135.207 168.695 108.225 179.4 76.882C173.7 109.48 145.717 140.842 117.605 155.246C102.642 162.929 91.0065 164.639 66.3845 173.16C63.3685 174.187 61.0025 175.201 61.0025 175.201C67.2425 174.161 73.463 173.823 73.463 173.823C108.518 172.166 163.209 183.677 188.806 149.578L188.799 149.572Z" fill="#70AD51"/>
</svg>
