<svg width="40" height="41" viewBox="0 0 40 41" fill="none" xmlns="http://www.w3.org/2000/svg">
<path d="M38.1257 0.498657H1.87429C0.839146 0.498657 0 1.3378 0 2.37294V38.6244C0 39.6595 0.839146 40.4987 1.87429 40.4987H38.1257C39.1609 40.4987 40 39.6595 40 38.6244V2.37294C40 1.3378 39.1609 0.498657 38.1257 0.498657Z" fill="#3178C6"/>
<path fill-rule="evenodd" clip-rule="evenodd" d="M23.2071 31.583V35.9658C24.0035 36.3589 24.8521 36.6355 25.7271 36.7872C26.7383 36.9739 27.7646 37.0657 28.7928 37.0615C29.795 37.0663 30.7948 36.9653 31.7757 36.7601C32.6564 36.5821 33.4967 36.2431 34.2543 35.7601C34.9576 35.3061 35.5373 34.6847 35.9414 33.9515C36.6652 32.4334 36.7606 30.6911 36.2071 29.103C35.9736 28.5091 35.6255 27.9669 35.1828 27.5072C34.7077 27.0185 34.1679 26.5969 33.5786 26.2544C32.9 25.857 32.1951 25.5066 31.4686 25.2058C30.8971 24.9687 30.3828 24.7382 29.9257 24.5144C29.5197 24.32 29.1311 24.091 28.7643 23.8301C28.477 23.6287 28.2274 23.3782 28.0271 23.0901C27.8541 22.8285 27.764 22.5208 27.7686 22.2072C27.7647 21.9186 27.8452 21.6351 28 21.3915C28.1681 21.1366 28.3924 20.9235 28.6557 20.7687C28.9775 20.5792 29.3277 20.4427 29.6928 20.3644C30.1411 20.2648 30.5994 20.2169 31.0586 20.2215C31.4448 20.2229 31.8304 20.2505 32.2128 20.3044C32.6258 20.3602 33.0344 20.4447 33.4357 20.5572C33.8439 20.6704 34.243 20.8136 34.63 20.9858C35.0055 21.1532 35.3646 21.355 35.7028 21.5887V17.4987C34.9987 17.2323 34.2685 17.0407 33.5243 16.9272C32.6256 16.7965 31.7181 16.7349 30.81 16.743C29.8173 16.7376 28.8275 16.8503 27.8614 17.0787C26.9882 17.2782 26.1579 17.6329 25.41 18.1258C24.7152 18.5886 24.1416 19.2113 23.7371 19.9415C23.3085 20.7525 23.0964 21.6603 23.1214 22.5772C23.0898 23.7898 23.4892 24.9743 24.2486 25.9201C25.1803 26.9688 26.3551 27.7728 27.67 28.2615C28.27 28.5091 28.8295 28.7515 29.3486 28.9887C29.8169 29.197 30.267 29.4441 30.6943 29.7272C31.0389 29.9514 31.3416 30.2343 31.5886 30.563C31.8057 30.8611 31.921 31.2213 31.9171 31.5901C31.9191 31.8665 31.8481 32.1385 31.7114 32.3787C31.5595 32.6368 31.346 32.8532 31.09 33.0087C30.7696 33.204 30.4192 33.3449 30.0528 33.4258C29.5756 33.5325 29.0875 33.5829 28.5986 33.5758C27.639 33.5741 26.6871 33.4049 25.7857 33.0758C24.844 32.736 23.9707 32.2304 23.2071 31.583ZM15.8443 20.6715H21.5586V17.0615H5.6257V20.6715H11.3143V36.7487H15.8443V20.6715Z" fill="white"/>
</svg>
